<?xml version='1.0' encoding='utf-8'?>
<svg xmlns="http://www.w3.org/2000/svg" width="732px" height="701px" style="shape-rendering:geometricPrecision; text-rendering:geometricPrecision; image-rendering:optimizeQuality; fill-rule:evenodd; clip-rule:evenodd" viewBox="0 0 732 700.998"> <defs> <style type="text/css">  .fil0 {fill:url(#id0)}  </style> <radialGradient id="id0" gradientUnits="userSpaceOnUse" cx="373.322" cy="385.546" r="248.934" fx="373.322" fy="385.546"> <stop offset="0" style="stop-color:#FF0066"/> <stop offset="0.580392" style="stop-color:#990099"/> <stop offset="1" style="stop-color:#FF0066"/> </radialGradient> </defs> <g id="Layer_x0020_1"> <metadata id="CorelCorpID_0Corel-Layer"/> <path class="fil0" d="M302.249 306.058c-63.0236,36.1122 -109.558,90.476 -139.215,153.371 -17.9882,38.1472 -62.1177,199.444 -29.426,230.115 35.974,33.7535 175.162,-53.6315 216.048,-89.6823 -12.698,-13.4327 -24.3319,-27.6343 -35.0161,-42.6945 -34.1858,30.926 -75.1535,54.4406 -120.34,68.0728 4.63819,-74.8228 21.0673,-142.109 77.3528,-206.191 19.5035,93.2492 76.4268,169.407 154.463,220.71 28.4457,18.4795 129.973,71.2087 157.972,59.5406 44.9988,-18.7465 5.74488,-178.852 -18.3614,-234.547 -16.6972,7.9252 -33.7984,14.6008 -51.424,20.1083 18.8469,42.0697 28.552,88.298 27.5551,135.488 -73.4067,-28.7043 -131.252,-68.3398 -172.198,-137.284 94.7126,10.2661 184.733,-20.3409 257.639,-78.7004 26.1957,-21.2067 114.324,-105.498 103.932,-136.789 -15.4205,-46.4374 -173.484,-55.1528 -227.228,-50.0669 2.37874,18.3272 3.43937,36.6591 3.23386,55.1209 45.8339,-4.92402 92.7957,0.127559 137.367,15.6614 -47.3941,57.7996 -101.628,102.821 -183.774,121.344 39.0295,-86.9043 37.7421,-181.975 4.76457,-269.346 -11.9126,-31.0453 -63.9945,-137.936 -95.0173,-140.198 -48.7866,-3.55866 -109.003,146.887 -120.795,199.716 18.1724,3.40157 35.9244,8.0563 53.4224,13.9583 9.48071,-45.1134 28.8,-88.2165 57.3449,-125.807 40.3087,62.9929 66.4016,128.248 58.6169,212.28 -75.4134,-68.348 -174.888,-94.8378 -272.683,-86.7071 -26.7343,2.22165 -127.415,19.4421 -142.478,41.8039 -28.7799,42.7323 102.289,152.349 150.385,180.78 8.85118,-16.2331 18.7606,-31.6724 29.7815,-46.4941 -39.9756,-22.9571 -74.9976,-54.6508 -101.928,-93.4134 72.5894,-18.7134 141.684,-23.8665 220.004,9.85157zm-12.3236 94.1291c18.2232,-16.9961 31.6205,-24.3992 31.2413,-24.1358 2.22638,-18.0685 4.06299,-37.6394 4.6689,-58.4433 21.7949,12.0803 32.974,22.5331 32.6067,22.2531 17.8736,-3.46417 37.0547,-7.76811 57.0283,-13.6217 -4.75512,24.4594 -11.2406,38.3244 -11.0894,37.8886 8.81811,15.9272 18.8362,32.8406 30.574,50.0268 -24.7276,3.03543 -39.9177,1.15157 -39.4559,1.1622 -12.4252,13.3075 -25.4126,28.0618 -38.1307,44.5382 -10.5307,-22.5815 -13.4327,-37.6087 -13.3004,-37.1681 -16.4953,-7.70315 -34.5425,-15.4961 -54.1429,-22.5z"/> </g> </svg>